<svg xmlns="http://www.w3.org/2000/svg" width="30.321" height="29.348" viewBox="0 0 30.321 29.348"><path d="M427.321,411.188a.96.96,0,0,1-.3.7l-14.158,14.158a.956.956,0,0,1-1.4,0L397.3,411.887a.955.955,0,0,1,0-1.4l1.519-1.519a.956.956,0,0,1,1.4,0l11.94,11.94,11.94-11.94a.955.955,0,0,1,1.4,0l1.519,1.519A.96.96,0,0,1,427.321,411.188Zm0-11.666a.96.96,0,0,1-.3.7l-14.158,14.158a.955.955,0,0,1-1.4,0L397.3,400.22a.955.955,0,0,1,0-1.4l1.519-1.519a.955.955,0,0,1,1.4,0l11.94,11.94L424.1,397.3a.955.955,0,0,1,1.4,0l1.519,1.519A.96.96,0,0,1,427.321,399.522Z" transform="translate(-397 -397)" fill="#fff"/></svg>