<svg xmlns="http://www.w3.org/2000/svg" width="34.404" height="28.67" viewBox="0 0 34.404 28.67">
  <path id="navicon" d="M162.4,280.369v2.867a1.453,1.453,0,0,1-1.433,1.434H129.433A1.453,1.453,0,0,1,128,283.236v-2.867a1.453,1.453,0,0,1,1.433-1.433H160.97a1.453,1.453,0,0,1,1.433,1.433Zm0-11.468v2.867a1.453,1.453,0,0,1-1.433,1.433H129.433A1.453,1.453,0,0,1,128,271.768V268.9a1.453,1.453,0,0,1,1.433-1.434H160.97A1.453,1.453,0,0,1,162.4,268.9Zm0-11.468V260.3a1.453,1.453,0,0,1-1.433,1.433H129.433A1.453,1.453,0,0,1,128,260.3v-2.867A1.453,1.453,0,0,1,129.433,256H160.97a1.453,1.453,0,0,1,1.433,1.433Z" transform="translate(-128 -256)" fill="#fff"/>
</svg>
